<?xml version="1.0" encoding="iso-8859-1"?>
<!-- Generator: Adobe Illustrator 16.0.0, SVG Export Plug-In . SVG Version: 6.00 Build 0)  -->
<!DOCTYPE svg PUBLIC "-//W3C//DTD SVG 1.1//EN" "http://www.w3.org/Graphics/SVG/1.1/DTD/svg11.dtd">
<svg version="1.1" id="Capa_1" xmlns="http://www.w3.org/2000/svg" xmlns:xlink="http://www.w3.org/1999/xlink" x="0px" y="0px"
	 width="453.357px" height="453.357px" viewBox="0 0 453.357 453.357" style="enable-background:new 0 0 453.357 453.357;"
	 xml:space="preserve">
<g>
	<g>
		<path d="M451.755,19.624V0H1.595v453.357h19.626h19.625v-19.764V70.434c27.305,40.9,65.081,125.322,76.147,286.441
			c2.036,29.555,3.212,61.546,3.212,96.482h39.252c0-49.471-2.262-93.569-6.099-133.118C138.13,163.334,97.312,80.435,67.004,39.25
			h365.271h19.487V19.624H451.755z"/>
		<polygon points="289.943,167.18 321.919,121.411 282.967,85.073 229.032,104.473 230.858,155.957 		"/>
		<polygon points="266.788,252.858 296.68,284.024 347.286,262.388 355.766,216.551 304.631,210.257 		"/>
		<path d="M278.165,302.807c62.821,0,114.332-48.161,119.767-109.569l1.149-1.25l-1.033-0.95c0.188-2.833,0.429-5.65,0.429-8.534
			c0-30.334-11.31-57.965-29.839-79.131c-22.058-25.185-54.354-41.176-90.473-41.176c-66.438,0-120.303,53.863-120.303,120.307
			c0,36.428,16.252,69,41.828,91.061C220.769,291.734,248.146,302.807,278.165,302.807z M368.897,123.118
			c-0.112,0.008-0.204,0.06-0.312,0.076l-0.689-1.655C368.248,122.048,368.553,122.593,368.897,123.118z M173.375,178.665
			l-2.096,21.982c-1.006-5.911-1.641-11.948-1.641-18.149c0-12.068,2.065-23.648,5.714-34.496c0.974-0.126,1.917-0.533,2.577-1.349
			l29.469-36.592l9.101-14.585c0.493-0.793,0.613-1.687,0.509-2.553c16.218-11.108,35.614-17.821,56.497-18.715
			c0.445,0.76,1.106,1.411,1.996,1.733l15.713,5.789l30.729,3.969c0.169,0.016,0.337,0.032,0.497,0.032
			c0.974,0,1.88-0.36,2.585-0.974c13.553,6.524,25.551,15.731,35.281,27.004c1.126,1.312,2.208,2.649,3.266,4.005l-3.851-1.302
			l-7.526,25.567l23.841,52.385l9.975,1.974c-5.947,54.258-52.024,96.637-107.845,96.637c-26.737,0-51.202-9.767-70.138-25.864
			c-0.793-0.661-1.529-1.398-2.3-2.088l21.492-18.803l-18.422-55.461L173.375,178.665z"/>
		<path d="M333.893,422.461c5.566,13.93,28.345,7.866,22.71-6.256c-10.166-25.451-23.099-49.616-33.895-74.774
			c-5.979-13.922-26.265-1.912-20.33,11.882C312.365,376.604,324.487,398.941,333.893,422.461z"/>
		<path d="M403.702,392.657c-10.163-25.438-23.099-49.612-33.891-74.771c-5.979-13.918-26.265-1.911-20.334,11.882
			c9.99,23.283,22.121,45.608,31.526,69.145C386.562,412.843,409.353,406.775,403.702,392.657z"/>
		<path d="M450.806,369.105c-10.167-25.438-23.099-49.611-33.891-74.771c-5.983-13.913-26.265-1.911-20.334,11.882
			c9.99,23.283,22.117,45.609,31.526,69.145C433.666,389.291,456.456,383.228,450.806,369.105z"/>
	</g>
</g>
<g>
</g>
<g>
</g>
<g>
</g>
<g>
</g>
<g>
</g>
<g>
</g>
<g>
</g>
<g>
</g>
<g>
</g>
<g>
</g>
<g>
</g>
<g>
</g>
<g>
</g>
<g>
</g>
<g>
</g>
</svg>
